<?xml version="1.0" standalone="no"?>
<!DOCTYPE svg PUBLIC "-//W3C//DTD SVG 20010904//EN"
 "http://www.w3.org/TR/2001/REC-SVG-20010904/DTD/svg10.dtd">
<svg version="1.0" xmlns="http://www.w3.org/2000/svg"
 width="4385.000000pt" height="1249.000000pt" viewBox="0 0 4385.000000 1249.000000"
 preserveAspectRatio="xMidYMid meet">

<g transform="translate(0.000000,1249.000000) scale(0.100000,-0.100000)"
fill="#000000" stroke="none">
<path d="M7850 6305 l0 -4355 646 0 647 0 -7 1857 c-3 1022 -9 2030 -12 2241
l-7 382 467 0 466 0 0 -2240 0 -2240 588 2 587 3 3 4353 2 4352 -590 0 -590 0
-2 -1437 -3 -1438 -462 -3 -463 -2 0 1440 0 1440 -635 0 -635 0 0 -4355z"/>
<path d="M17640 8260 l0 -2360 645 0 645 0 0 805 0 805 475 0 475 0 0 655 0
655 -475 0 -475 0 0 900 0 900 -645 0 -645 0 0 -2360z"/>
<path d="M31990 7820 l0 -2800 665 0 665 0 0 2800 0 2800 -665 0 -665 0 0
-2800z"/>
<path d="M34550 9875 l0 -525 1045 0 c931 0 1045 -2 1045 -15 0 -9 -13 -41
-29 -73 -130 -258 -534 -609 -1026 -892 -248 -143 -609 -304 -882 -395 l-113
-37 0 -439 c0 -300 3 -439 11 -439 20 0 295 71 444 115 731 215 1446 534 1974
882 271 178 457 328 654 527 l128 129 61 -67 c70 -77 280 -273 400 -373 727
-604 1562 -941 2676 -1078 l52 -7 -2 403 -3 402 -99 28 c-873 248 -1522 659
-1951 1234 l-67 90 1086 3 1086 2 0 525 0 525 -3245 0 -3245 0 0 -525z"/>
<path d="M12170 8135 l0 -1965 2260 0 2260 0 0 535 0 535 -1615 0 -1615 0 0
835 0 835 1505 0 1505 0 0 595 0 595 -2150 0 -2150 0 0 -1965z"/>
<path d="M26510 7960 l0 -2120 2180 0 2180 0 0 2120 0 2120 -2180 0 -2180 0 0
-2120z m3120 -10 l0 -930 -940 0 -940 0 0 930 0 930 940 0 940 0 0 -930z"/>
<path d="M3110 6780 l0 -3040 1945 0 1945 0 0 3040 0 3040 -630 0 -630 0 0
-785 0 -785 -700 0 -700 0 0 785 0 785 -615 0 -615 0 0 -3040z m2630 -840 l0
-930 -700 0 -700 0 0 930 0 930 700 0 700 0 0 -930z"/>
<path d="M24430 5880 c0 -1868 0 -1910 -19 -1919 -37 -20 -438 -151 -631 -206
-735 -210 -1506 -349 -2265 -407 -187 -14 -919 -18 -1077 -5 l-98 7 0 -500 0
-500 138 0 c75 0 261 5 412 10 1557 56 2761 350 3395 831 49 37 105 80 123 95
l32 27 0 -622 0 -621 540 0 540 0 0 2860 0 2860 -545 0 -545 0 0 -1910z"/>
<path d="M37090 7115 l0 -445 -1515 0 -1515 0 0 -585 0 -585 3730 0 3730 0 0
585 0 585 -1505 0 -1505 0 0 445 0 445 -710 0 -710 0 0 -445z"/>
<path d="M21456 7449 c-223 -33 -430 -135 -584 -289 -124 -124 -210 -275 -260
-459 l-27 -96 0 -685 c0 -680 0 -686 23 -765 53 -190 166 -363 315 -481 102
-81 269 -165 402 -201 l100 -28 640 0 c622 0 643 1 730 22 220 53 376 134 505
262 120 119 191 245 242 427 23 78 23 84 23 784 0 695 0 706 -22 782 -98 342
-314 579 -625 683 -153 50 -223 55 -838 54 -311 -1 -592 -5 -624 -10z m864
-780 c144 -23 263 -110 323 -237 l32 -67 3 -390 c3 -340 1 -398 -14 -453 -20
-76 -77 -167 -132 -210 -106 -85 -221 -107 -497 -100 -150 5 -191 9 -245 28
-165 55 -280 182 -310 340 -14 72 -13 660 1 736 15 81 51 149 112 212 78 80
179 130 292 145 66 9 374 6 435 -4z"/>
<path d="M12750 5145 l0 -415 2365 0 2365 0 0 -235 0 -235 -2367 0 -2366 0 6
-727 c4 -401 7 -927 7 -1170 l0 -443 3070 0 3070 0 0 475 0 475 -2427 2 -2428
3 -3 228 -2 227 2430 0 2430 0 0 1115 0 1115 -3075 0 -3075 0 0 -415z"/>
<path d="M34500 4330 l0 -600 2655 0 2655 0 0 -112 c-1 -495 -157 -1133 -390
-1598 l-50 -100 644 0 644 0 61 135 c191 424 313 907 351 1384 5 76 10 433 10
813 l0 678 -3290 0 -3290 0 0 -600z"/>
<path d="M27280 3385 l0 -1455 3075 0 3075 0 0 615 0 615 -2435 0 -2435 0 0
840 0 840 -640 0 -640 0 0 -1455z"/>
</g>
</svg>
